# xmcd
#
# Track frame offsets:
# 150
# 15331
# 34415
# 52170
# 70372
# 85479
# 108229
# 133556
# 147750
# 161388
# 182306
#
# Disc length: 2656 seconds
#
# Revision: 1
# Processed by: cddbd v1.4PL0 Copyright (c) Steve Scherf et al.
# Submitted via: Easy CD Ripper 1.45
#
DISCID=8e0a5e0b
DTITLE=Kim Carson And The Casualties - Kim Carson And The Casualties
DYEAR=1997
DGENRE=Country
TTITLE0=Set Me Free
TTITLE1=Kim Carson And The Casualties - We Belong
TTITLE2=Kim Carson And The Casualties - Out Of My Way Back To You
TTITLE3=Kim Carson And The Casualties - I Wish I Knew
TTITLE4=Kim Carson And The Casualties - Outside
TTITLE5=Kim Carson And The Casualties - Fly Away
TTITLE6=Kim Carson And The Casualties - Fool For You
TTITLE7=Kim Carson And The Casualties - Cajun Moon
TTITLE8=Kim Carson And The Casualties - Tell Me I'm Wrong
TTITLE9=Kim Carson And The Casualties - I Keep Holding On
TTITLE10=Kim Carson And The Casualties - You Don't Want To Be The One
EXTD=
EXTT0=
EXTT1=
EXTT2=
EXTT3=
EXTT4=
EXTT5=
EXTT6=
EXTT7=
EXTT8=
EXTT9=
EXTT10=
PLAYORDER=
